<?xml version="1.0" standalone="no"?>
<!DOCTYPE svg PUBLIC "-//W3C//DTD SVG 20010904//EN"
 "http://www.w3.org/TR/2001/REC-SVG-20010904/DTD/svg10.dtd">
<svg version="1.0" xmlns="http://www.w3.org/2000/svg"
 width="256.000000pt" height="256.000000pt" viewBox="0 0 256.000000 256.000000"
 preserveAspectRatio="xMidYMid meet">
<metadata>
Created by potrace 1.11, written by Peter Selinger 2001-2013
</metadata>
<g transform="translate(0.000000,256.000000) scale(0.100000,-0.100000)"
fill="#000000" stroke="none">
<path d="M1040 2443 c-185 -33 -298 -64 -386 -108 -74 -36 -98 -64 -96 -113 0
-25 79 -252 116 -336 8 -17 49 -119 91 -226 42 -107 83 -208 90 -225 57 -129
166 -418 162 -429 -5 -12 -55 -31 -62 -24 -2 2 -112 219 -245 483 -273 541
-300 589 -341 610 -35 19 -33 19 -67 1 -55 -28 -167 -198 -208 -314 -23 -66
-23 -116 1 -162 7 -14 168 -178 357 -365 190 -187 350 -350 357 -362 10 -19 8
-26 -9 -43 -11 -11 -27 -20 -34 -20 -12 0 -172 120 -236 176 -23 21 -132 110
-271 221 -193 155 -220 168 -243 112 -19 -45 -8 -179 23 -279 35 -113 92 -186
196 -254 61 -39 84 -50 250 -116 179 -71 282 -124 345 -176 38 -32 146 -148
217 -234 43 -52 99 -109 124 -126 42 -28 53 -31 118 -28 101 3 123 19 257 194
158 208 237 260 589 394 16 6 75 33 130 60 185 91 261 205 283 421 6 65 7 92
3 153 -2 31 -36 29 -86 -5 -22 -14 -42 -29 -45 -32 -3 -4 -50 -42 -105 -86
-55 -43 -152 -122 -216 -175 -64 -52 -131 -107 -150 -122 -19 -14 -51 -40 -72
-57 -21 -16 -48 -33 -59 -37 -22 -7 -58 20 -58 45 0 9 157 171 349 361 321
318 349 349 361 392 7 27 10 70 8 97 -6 56 -58 173 -116 258 -77 113 -103 131
-155 110 -63 -27 -69 -38 -344 -607 -122 -250 -234 -474 -244 -484 -5 -6 -20
-4 -38 5 l-30 14 35 90 c68 177 97 251 115 292 11 23 19 44 19 48 0 3 8 24 19
48 10 23 31 74 46 112 15 39 31 79 36 90 5 11 22 56 40 100 17 44 37 94 44
110 30 68 77 204 90 259 30 130 -9 167 -245 236 -146 42 -277 65 -308 54 -16
-5 -34 -24 -44 -45 -19 -37 -22 -84 -33 -419 -6 -181 -11 -306 -19 -470 -22
-442 -18 -415 -65 -416 -17 -1 -34 2 -36 6 -2 4 -7 65 -10 136 -3 71 -7 170
-10 219 -2 50 -7 162 -10 250 -4 88 -8 198 -10 245 -2 47 -6 157 -10 245 -6
161 -15 214 -39 234 -15 13 -80 21 -116 14z"/>
<path d="M655 375 c-19 -20 -47 -59 -61 -88 -76 -148 -56 -166 179 -166 171 0
185 5 172 56 -18 75 -179 233 -236 233 -10 0 -34 -16 -54 -35z"/>
<path d="M1806 394 c-118 -65 -240 -245 -180 -268 9 -3 81 -6 160 -6 177 0
214 11 214 63 0 69 -103 228 -147 227 -10 -1 -31 -8 -47 -16z"/>
</g>
</svg>
